<svg width="178" height="24" viewBox="0 0 178 24" fill="none" xmlns="http://www.w3.org/2000/svg" class="rc-h-6 rc-block"><path d="M37.3308 12.0253C37.3308 7.90735 40.4792 4.98242 44.8888 4.98242C47.7253 4.98242 49.9707 6.1178 50.9572 8.33977C50.9594 8.34642 47.332 9.31104 47.332 9.31104C46.6553 8.57482 45.8028 8.23554 44.8624 8.23554C42.8719 8.23554 41.3097 9.6348 41.3097 12.0231C41.3097 14.4114 42.8719 15.8106 44.8624 15.8106C45.8006 15.8106 46.6487 15.4891 47.3232 14.7529L50.9484 15.6266C49.9597 17.7975 47.7231 19.0637 44.8866 19.0637C40.4792 19.0637 37.3286 16.141 37.3286 12.0209L37.3308 12.0253Z" fill="currentColor"></path> <path d="M66.8885 11.0344V18.8645H62.9601V11.6443C62.9601 9.43338 61.9517 8.41553 60.2138 8.41553C58.3243 8.41553 56.9643 9.58639 56.9643 12.1033V18.8668H53.0359V0.962409L56.9643 0V6.61046C58.0233 5.54161 59.5349 4.98279 61.2728 4.98279C64.4718 4.98279 66.8907 6.86326 66.8907 11.0344H66.8885Z" fill="currentColor"></path> <path d="M84.0391 4.54787V18.8643H80.2865V17.2876C79.3044 18.4828 77.8675 19.0683 76.0549 19.0683C72.2254 19.0683 69.2791 16.323 69.2791 12.0254C69.2791 7.72781 72.2254 4.98251 76.0549 4.98251C77.7181 4.98251 79.1286 5.51693 80.1107 6.63457V5.52137L84.0391 4.54565V4.54787ZM80.1854 12.0254C80.1854 9.6615 78.6738 8.23785 76.7338 8.23785C74.7938 8.23785 73.258 9.6615 73.258 12.0254C73.258 14.3893 74.7696 15.8129 76.7338 15.8129C78.698 15.8129 80.1854 14.3893 80.1854 12.0254Z" fill="currentColor"></path> <path d="M95.8065 4.98285V8.644C95.4791 8.61961 95.2264 8.593 94.9254 8.593C92.7591 8.593 91.3222 9.78825 91.3222 12.4072V18.8646H87.3938V5.46406L91.1464 4.54822V6.99194C92.1044 5.67029 93.7148 4.98285 95.8065 4.98285Z" fill="currentColor"></path> <path d="M111.924 4.54822V16.5761C111.924 21.6609 109.204 24.0004 104.318 24.0004C101.75 24.0004 99.2537 23.364 97.6674 22.1199L99.2296 19.2726C100.387 20.2129 102.277 20.8227 104.015 20.8227C106.785 20.8227 107.996 19.552 107.996 17.0861V16.5007C106.963 17.645 105.476 18.2038 103.714 18.2038C99.9612 18.2038 96.938 15.5849 96.938 11.5933C96.938 7.60176 99.9612 4.98285 103.714 4.98285C105.603 4.98285 107.165 5.61929 108.198 6.94093V5.47515L111.927 4.55044L111.924 4.54822ZM108.044 11.5933C108.044 9.58423 106.559 8.23819 104.492 8.23819C102.424 8.23819 100.915 9.58645 100.915 11.5933C100.915 13.6002 102.426 14.9484 104.492 14.9484C106.557 14.9484 108.044 13.6002 108.044 11.5933Z" fill="currentColor"></path> <path d="M118.801 14.2798C119.45 15.3486 120.618 15.8919 122.187 15.8919C123.624 15.8919 124.657 15.4595 125.588 14.5703L127.68 16.8587C126.421 18.309 124.531 19.0718 122.088 19.0718C117.402 19.0718 114.354 16.0981 114.354 12.029C114.354 7.95979 117.428 4.98608 121.609 4.98608C125.355 4.98608 128.451 7.50964 128.607 11.7119L118.804 14.282M118.21 11.9336L124.832 10.3392C124.455 8.93994 123.246 7.98862 121.609 7.98862C119.645 7.98862 118.21 9.24818 118.21 11.9336Z" fill="currentColor"></path> <path d="M151.757 14.2798C152.405 15.3486 153.574 15.8919 155.142 15.8919C156.579 15.8919 157.612 15.4595 158.544 14.5703L160.635 16.8587C159.376 18.309 157.487 19.0718 155.044 19.0718C150.357 19.0718 147.31 16.0981 147.31 12.029C147.31 7.95979 150.384 4.98608 154.565 4.98608C158.311 4.98608 161.406 7.50964 161.562 11.7119L151.759 14.282M151.166 11.9336L157.788 10.3392C157.41 8.93994 156.201 7.98862 154.565 7.98862C152.6 7.98862 151.166 9.24818 151.166 11.9336Z" fill="currentColor"></path> <path d="M167.511 14.2798C168.16 15.3486 169.328 15.8919 170.897 15.8919C172.334 15.8919 173.367 15.4595 174.298 14.5703L176.39 16.8587C175.131 18.309 173.241 19.0718 170.798 19.0718C166.112 19.0718 163.064 16.0981 163.064 12.029C163.064 7.95979 166.138 4.98608 170.319 4.98608C174.065 4.98608 177.161 7.50964 177.317 11.7119L167.514 14.282M166.92 11.9336L173.542 10.3392C173.164 8.93994 171.956 7.98862 170.319 7.98862C168.355 7.98862 166.92 9.24818 166.92 11.9336Z" fill="currentColor"></path> <path d="M145.776 12.0257C145.776 16.3233 142.83 19.0686 139.024 19.0686C137.209 19.0686 135.751 18.4831 134.766 17.2879V18.8645H131.014V0.969061L134.942 0V6.63486C135.951 5.515 137.335 4.98279 139.022 4.98279C142.825 4.98279 145.774 7.7281 145.774 12.0257H145.776ZM141.795 12.0257C141.795 9.66179 140.31 8.23813 138.343 8.23813C136.377 8.23813 134.892 9.66179 134.892 12.0257C134.892 14.3896 136.379 15.8132 138.343 15.8132C140.307 15.8132 141.795 14.3896 141.795 12.0257Z" fill="currentColor"></path> <path d="M7.77661 12.0014L23.466 8.22495V0.0134277H15.3302L7.77661 12.0014Z" fill="#FF3300"></path> <path d="M0 11.857C0 12.8394 0.118643 13.7929 0.342746 14.7065L7.77551 12.0011L0.281228 9.27136C0.0988691 10.1029 0 10.9678 0 11.8548V11.857Z" fill="#FF3300"></path> <path d="M2.76416 4.22196L7.77353 12.0011L10.0827 0.130615C7.15834 0.545294 4.58115 2.04878 2.76416 4.22196Z" fill="#FF3300"></path> <path d="M7.77661 12.0013L23.466 15.7756V23.9871H15.3302L7.77661 12.0013Z" fill="#FF3300"></path> <path d="M2.76465 19.7779L7.77402 11.9988L10.081 23.867C7.15663 23.4523 4.57945 21.9488 2.76245 19.7757L2.76465 19.7779Z" fill="#FF3300"></path></svg>
